<svg xmlns="http://www.w3.org/2000/svg" width="512" height="467.395" viewBox="0 0 512 467.395">
  <g id="upload" transform="translate(-0.584 -1.913)">
    <path id="Caminho_64" data-name="Caminho 64" d="M53.251,374.67c0-101.676-52.667-171.5-52.667-220.491S28.748,2.29,254.129,2.29,512.584,140.714,512.584,194.6C512.6,446.947,53.251,554.738,53.251,374.67Z" transform="translate(0 5.162)" fill="#191a1c"/>
    <g id="Grupo_10" data-name="Grupo 10" transform="translate(387.713 1.913)">
      <path id="Caminho_65" data-name="Caminho 65" d="M0,0H29.35V14.675H0Z" transform="translate(57.013 25.887) rotate(-45)" fill="#3585f3"/>
      <path id="Caminho_66" data-name="Caminho 66" d="M0,0H14.675V29.35H0Z" transform="translate(0 10.375) rotate(-45)" fill="#3585f3"/>
      <path id="Caminho_67" data-name="Caminho 67" d="M0,0H14.675V29.35H0Z" transform="translate(59.643 70.072) rotate(-45)" fill="#3585f3"/>
    </g>
    <path id="Caminho_68" data-name="Caminho 68" d="M337.779,222.536V39.1A29.379,29.379,0,0,0,308.355,9.75H36.175A29.379,29.379,0,0,0,6.75,39.1V222.536a29.379,29.379,0,0,0,29.425,29.35h272.18A29.379,29.379,0,0,0,337.779,222.536Z" transform="translate(84.319 107.572)" fill="#f3f3f1"/>
    <path id="Caminho_69" data-name="Caminho 69" d="M6.75,110.137h95.387a29.342,29.342,0,0,0,29.35-29.35V44.1a29.342,29.342,0,0,0-29.35-29.35H6.75Z" transform="translate(84.517 175.943)" fill="#3585f3"/>
    <path id="Caminho_71" data-name="Caminho 71" d="M39.768,222.536V39.1A29.342,29.342,0,0,1,69.118,9.75H36.1A29.342,29.342,0,0,0,6.75,39.1V222.536a29.342,29.342,0,0,0,29.35,29.35H69.118A29.342,29.342,0,0,1,39.768,222.536Z" transform="translate(84.49 107.572)" fill="#d5dbe1"/>
    <path id="Caminho_72" data-name="Caminho 72" d="M6.75,14.75H39.768v95.387H6.75Z" transform="translate(84.479 175.943)" fill="#3e76af"/>
    <path id="Caminho_76" data-name="Caminho 76" d="M171.488,273.148H46.453A40.438,40.438,0,0,1,6,232.792V49.356A40.438,40.438,0,0,1,46.453,9H318.589a40.438,40.438,0,0,1,40.453,40.356v95.387H336.977V49.356a18.391,18.391,0,0,0-18.388-18.344H46.453A18.391,18.391,0,0,0,28.065,49.356V232.792a18.391,18.391,0,0,0,18.388,18.344H171.488Z" transform="translate(74.063 97.317)" fill="#28292d"/>
    <path id="Caminho_77" data-name="Caminho 77" d="M112.393,131.4H17.006A11.01,11.01,0,0,1,6,120.393V25.006A11.01,11.01,0,0,1,17.006,14h95.387a40.389,40.389,0,0,1,40.356,40.356V91.043A40.389,40.389,0,0,1,112.393,131.4Zm-84.38-22.012h84.38a18.369,18.369,0,0,0,18.344-18.344V54.356a18.369,18.369,0,0,0-18.344-18.344H28.012Z" transform="translate(74.247 165.687)" fill="#28292d"/>
    <circle id="Elipse_26" data-name="Elipse 26" cx="14.675" cy="14.675" r="14.675" transform="translate(139.005 223.71)" fill="#28292d"/>
    <ellipse id="Elipse_28" data-name="Elipse 28" cx="61.442" cy="61.442" rx="61.442" ry="61.442" transform="translate(290.986 261.264)" fill="#3585f3"/>
    <path id="Caminho_83" data-name="Caminho 83" d="M41.793,79.192A61.445,61.445,0,0,1,91.214,18.947,61.438,61.438,0,1,0,79.192,140.635a61.075,61.075,0,0,0,12.021-1.2A61.445,61.445,0,0,1,41.793,79.192Z" transform="translate(273.165 243.514)" fill="#3e76af"/>
    <path id="Caminho_84" data-name="Caminho 84" d="M22.75,25.071H38.778V51.026H22.75Z" transform="translate(321.619 314.431)" fill="#28292d"/>
    <path id="Caminho_85" data-name="Caminho 85" d="M45.1,86.06H21.51V70.032H45.1c1.475,0,3.12-1.8,3.12-4.381s-1.646-4.392-3.12-4.392H40.648C30.09,61.259,21.5,52.1,21.5,40.839s8.591-20.41,19.149-20.41h23.6V36.457H40.658c-1.475,0-3.12,1.8-3.12,4.381s1.646,4.392,3.12,4.392h4.456c10.557,0,19.149,9.158,19.149,20.42S55.661,86.06,45.1,86.06Z" transform="translate(309.512 269.433)" fill="#28292d"/>
    <path id="Caminho_86" data-name="Caminho 86" d="M22.75,19.5H38.778V45.455H22.75Z" transform="translate(321.619 260.368)" fill="#28292d"/>
    <path id="Caminho_87" data-name="Caminho 87" d="M86.457,155.913a69.457,69.457,0,1,1,69.457-69.457A69.537,69.537,0,0,1,86.457,155.913Zm0-122.885a53.428,53.428,0,1,0,53.428,53.428A53.489,53.489,0,0,0,86.457,33.028Z" transform="translate(265.981 236.259)" fill="#28292d"/>
  </g>
</svg>
