<svg xmlns="http://www.w3.org/2000/svg" width="80.627" height="154.845" viewBox="0 0 80.627 154.845">
  <g id="Grupo_23" data-name="Grupo 23" transform="translate(-136.382 -211.983)">
    <path id="União_1" data-name="União 1" d="M3173.117,149.261V89.843c0-4.039,1.973-7.557,7.651-10.883l57.583-31.7-61.222-35.346c-3.108-1.8-4.509-5.189-3.128-7.581s5.02-2.875,8.129-1.08l66.027,38.12a7.554,7.554,0,0,1,3.353,4.877,12,12,0,0,1,.609,4.332V110c0,4.039.452,10.284-4.923,12.528l-64.253,34.048a16.04,16.04,0,0,1-3.494.437C3173.806,157.01,3173.117,152.692,3173.117,149.261Z" transform="translate(-3035.118 209.817)" fill="#a9dfd8"/>
    <rect id="Retângulo_64" data-name="Retângulo 64" width="37.241" height="10" rx="5" transform="translate(156.693 239.317) rotate(30)" fill="#a9dfd8"/>
    <rect id="Retângulo_65" data-name="Retângulo 65" width="34.241" height="10" rx="5" transform="translate(141.382 250.757) rotate(30)" fill="#a9dfd8"/>
    <circle id="Elipse_41" data-name="Elipse 41" cx="5" cy="5" r="5" transform="translate(138 233)" fill="#a9dfd8"/>
    <circle id="Elipse_42" data-name="Elipse 42" cx="5" cy="5" r="5" transform="translate(137 274)" fill="#a9dfd8"/>
  </g>
</svg>
